<svg width="24" height="25" viewBox="0 0 24 25" fill="none" xmlns="http://www.w3.org/2000/svg">
<path d="M9.37512 22.768C8.98176 22.803 8.58665 22.8275 8.20906 22.8275C6.37467 22.9535 4.56291 22.3631 3.15496 21.1805C1.82508 19.8471 1.33798 17.5089 1.56313 14.9604L9.37512 22.768ZM22.4681 9.293C22.6039 6.90569 22.1089 4.7444 20.8517 3.48372C19.5946 2.22305 17.435 1.73157 15.0442 1.86561L22.4681 9.293ZM22.1737 11.4762C21.6408 14.2102 20.3469 16.7383 18.4408 18.7695C16.5009 20.5926 14.1014 21.8534 11.4996 22.4167L1.90655 12.8236C2.47662 10.2253 3.74139 7.83047 5.56593 5.89469C7.59717 3.98861 10.1252 2.69467 12.8593 2.16172L22.1737 11.4762ZM17.0049 10.8366L13.5006 7.33234C13.3353 7.17275 13.114 7.08445 12.8843 7.08644C12.6546 7.08844 12.4349 7.18058 12.2725 7.34301C12.11 7.50544 12.0179 7.72517 12.0159 7.95488C12.0139 8.18458 12.1022 8.40588 12.2618 8.57111L13.3928 9.70388L12.0034 11.0933L10.8706 9.96057C10.7054 9.80099 10.4841 9.71268 10.2544 9.71468C10.0246 9.71668 9.80491 9.80881 9.64248 9.97124C9.48005 10.1337 9.38791 10.3534 9.38592 10.5831C9.38392 10.8128 9.47223 11.0341 9.63181 11.1993L10.7646 12.3321L9.37512 13.7216L8.24235 12.5888C8.07712 12.4292 7.85582 12.3409 7.62612 12.3429C7.39641 12.3449 7.17668 12.437 7.01425 12.5995C6.85182 12.7619 6.75968 12.9816 6.75768 13.2113C6.75569 13.4411 6.84399 13.6624 7.00358 13.8276L10.5079 17.3319C10.6731 17.4915 10.8944 17.5798 11.1241 17.5778C11.3538 17.5758 11.5736 17.4837 11.736 17.3212C11.8984 17.1588 11.9906 16.9391 11.9926 16.7094C11.9946 16.4796 11.9062 16.2583 11.7467 16.0931L10.6139 14.9604L12.0034 13.5709L13.1361 14.7037C13.3014 14.8632 13.5227 14.9515 13.7524 14.9496C13.9821 14.9476 14.2018 14.8554 14.3642 14.693C14.5267 14.5306 14.6188 14.3108 14.6208 14.0811C14.6228 13.8514 14.5345 13.6301 14.3749 13.4649L13.2421 12.3321L14.6316 10.9427L15.7644 12.0754C15.9296 12.235 16.1509 12.3233 16.3806 12.3213C16.6103 12.3193 16.83 12.2272 16.9925 12.0648C17.1549 11.9023 17.247 11.6826 17.249 11.4529C17.251 11.2232 17.1627 11.0019 17.0031 10.8366H17.0049Z" fill="#A8CBC9"/>
</svg>
