<svg width="24" height="25" viewBox="0 0 24 25" fill="none" xmlns="http://www.w3.org/2000/svg">
<path d="M3.91129 11.5366C4.15239 11.2955 4.54345 11.2952 4.7848 11.5366L5.15865 11.9104C5.62397 11.7287 6.0747 11.5185 6.50884 11.2806L6.24069 11.0124C5.9993 10.7711 5.9993 10.3803 6.24069 10.1389C6.48175 9.89783 6.8731 9.89783 7.1142 10.1389L7.58532 10.61C7.96939 10.3401 8.33624 10.046 8.6842 9.72896L8.10421 9.14892C7.86311 8.90782 7.86282 8.5168 8.10421 8.27541C8.34526 8.03431 8.73633 8.03403 8.97772 8.27541L9.54902 8.84672C9.86029 8.49234 10.1477 8.11877 10.4112 7.7289L9.96768 7.28541C9.72658 7.04431 9.72629 6.65328 9.96768 6.4119C10.2087 6.1708 10.5998 6.17051 10.8412 6.4119L11.0631 6.63376C11.2939 6.19205 11.4972 5.73374 11.6704 5.26118L11.3653 4.95605C11.1242 4.71495 11.1239 4.32392 11.3653 4.08254C11.5551 3.8927 11.8381 3.85251 12.0676 3.96139C12.2099 3.37991 12.3112 2.78242 12.3701 2.17212C6.64675 2.23578 1.9935 6.91221 2.00001 12.6779C2.63156 12.6095 3.24914 12.4957 3.8487 12.337C3.67225 12.0953 3.69292 11.7549 3.91129 11.5366Z" fill="#A8CBC9"/>
<path d="M13.6365 5.48016C13.8771 5.72081 13.878 6.11208 13.6365 6.35367C13.3951 6.59506 13.0041 6.59477 12.763 6.35367L12.6238 6.21449C12.4325 6.67194 12.2158 7.11625 11.9745 7.54516L12.7047 8.27541C12.9453 8.51601 12.9463 8.90737 12.7047 9.14892C12.4633 9.39031 12.0723 9.39002 11.8312 9.14892L11.2993 8.61694C11.0293 9.00101 10.7373 9.36992 10.4243 9.72196L11.3071 10.6048C11.5481 10.8458 11.5482 11.2372 11.3071 11.4783C11.0657 11.7197 10.6746 11.7194 10.4336 11.4783L9.55829 10.603C9.21239 10.9216 8.84928 11.2194 8.47077 11.4955L8.97772 12.0024C9.21877 12.2435 9.21885 12.6348 8.97772 12.8759C8.73633 13.1173 8.3453 13.117 8.10421 12.8759L7.4153 12.187C6.99252 12.4345 6.55488 12.6578 6.10386 12.8555L6.18247 12.9341C6.42352 13.1751 6.4236 13.5665 6.18247 13.8076C5.94108 14.049 5.55005 14.0487 5.30896 13.8076L4.83697 13.3357C3.95181 13.6198 3.02588 13.8138 2.07314 13.9128C2.64103 18.7117 6.45395 22.5675 11.3222 23.1078C11.4221 22.1717 11.6143 21.2626 11.8935 20.3923L11.3653 19.8641C11.1242 19.623 11.124 19.232 11.3653 18.9906C11.6064 18.7495 11.9978 18.7495 12.2389 18.9906L12.3736 19.1254C12.5713 18.6744 12.7947 18.2367 13.0422 17.8139L12.297 17.0688C12.0559 16.8277 12.0557 16.4367 12.297 16.1953C12.5381 15.9542 12.9295 15.9542 13.1706 16.1953L13.7337 16.7584C14.0097 16.3799 14.3076 16.0168 14.6261 15.6709L13.6947 14.7394C13.4536 14.4983 13.4533 14.1073 13.6947 13.8659C13.9358 13.6248 14.3271 13.6248 14.5682 13.8659L15.5072 14.8049C15.8592 14.4919 16.2281 14.1999 16.6122 13.9299L16.024 13.3418C15.7829 13.1007 15.7826 12.7097 16.024 12.4683C16.2651 12.2272 16.6564 12.2272 16.8975 12.4683L17.684 13.2547C18.1129 13.0134 18.5572 12.7967 19.0147 12.6055L18.8193 12.4101C18.5782 12.169 18.5779 11.7779 18.8193 11.5366C19.0604 11.2955 19.4517 11.2955 19.6928 11.5366L20.301 12.1448C21.1521 11.8889 22.0387 11.7151 22.9504 11.6286C22.4644 6.67297 18.5372 2.74816 13.6056 2.22948C13.5206 3.15833 13.3453 4.06153 13.0844 4.92809L13.6365 5.48016Z" fill="#A8CBC9"/>
<path d="M20.217 13.8077L19.9677 13.5584C19.4955 13.732 19.0372 13.9352 18.5954 14.1661C18.7708 14.3415 18.9419 14.474 18.9419 14.7688C18.9419 15.3148 18.2768 15.5945 17.8876 15.2053L17.5007 14.8184C17.1105 15.0816 16.7369 15.369 16.3826 15.6802L16.8977 16.1953C17.0182 16.3159 17.0785 16.474 17.0785 16.6324C17.0785 17.1784 16.4134 17.4581 16.0242 17.0689L15.5003 16.545C15.1833 16.893 14.8892 17.2599 14.6192 17.6439C15.0296 18.0543 15.215 18.1725 15.215 18.4959C15.215 19.0419 14.5499 19.3216 14.1606 18.9324L13.9487 18.7204C13.7108 19.1545 13.5006 19.6053 13.3188 20.0706C13.6192 20.371 13.8173 20.507 13.8173 20.8253C13.8173 21.2981 13.3062 21.5945 12.8966 21.3634C12.7406 21.9504 12.6273 22.5546 12.5577 23.1721C18.2672 23.1423 22.8975 18.5635 22.9995 12.8649C22.3985 12.9254 21.81 13.027 21.2376 13.1691C21.4511 13.793 20.6737 14.2644 20.217 13.8077Z" fill="#A8CBC9"/>
</svg>
