<svg width="25" height="25" viewBox="0 0 25 25" fill="none" xmlns="http://www.w3.org/2000/svg">
<path d="M12.062 21.3989C9.96201 21.3989 8.10368 20.7616 6.48701 19.4869C4.87035 18.2123 3.82035 16.5829 3.33701 14.5989C3.27035 14.3489 3.32034 14.1199 3.48701 13.9119C3.65368 13.7039 3.87868 13.5829 4.16201 13.5489C4.42868 13.5156 4.67034 13.5656 4.88701 13.6989C5.10368 13.8323 5.25368 14.0323 5.33701 14.2989C5.73701 15.7989 6.56201 17.0239 7.81201 17.9739C9.06201 18.9239 10.4787 19.3989 12.062 19.3989C14.012 19.3989 15.6663 18.7199 17.025 17.3619C18.3837 16.0039 19.0627 14.3496 19.062 12.3989C19.0613 10.4483 18.3823 8.79426 17.025 7.43693C15.6677 6.07959 14.0133 5.40026 12.062 5.39893C10.912 5.39893 9.83701 5.66559 8.83701 6.19893C7.83701 6.73226 6.99535 7.46559 6.31201 8.39893H8.06201C8.34535 8.39893 8.58301 8.49493 8.77501 8.68693C8.96701 8.87893 9.06268 9.11626 9.06201 9.39893C9.06135 9.68159 8.96534 9.91926 8.77401 10.1119C8.58268 10.3046 8.34535 10.4003 8.06201 10.3989H4.06201C3.77868 10.3989 3.54135 10.3029 3.35001 10.1109C3.15868 9.91893 3.06268 9.68159 3.06201 9.39893V5.39893C3.06201 5.11559 3.15801 4.87826 3.35001 4.68693C3.54201 4.49559 3.77935 4.39959 4.06201 4.39893C4.34468 4.39826 4.58234 4.49426 4.77501 4.68693C4.96768 4.87959 5.06334 5.11693 5.06201 5.39893V6.74893C5.91201 5.68226 6.94968 4.85726 8.17501 4.27393C9.40034 3.69059 10.696 3.39893 12.062 3.39893C13.312 3.39893 14.483 3.63659 15.575 4.11193C16.667 4.58726 17.617 5.22859 18.425 6.03593C19.233 6.84326 19.8747 7.79326 20.35 8.88593C20.8253 9.97859 21.0627 11.1496 21.062 12.3989C21.0613 13.6483 20.824 14.8193 20.35 15.9119C19.876 17.0046 19.2343 17.9546 18.425 18.7619C17.6157 19.5693 16.6657 20.2109 15.575 20.6869C14.4843 21.1629 13.3133 21.4003 12.062 21.3989ZM13.062 11.9989L15.562 14.4989C15.7453 14.6823 15.837 14.9156 15.837 15.1989C15.837 15.4823 15.7453 15.7156 15.562 15.8989C15.3787 16.0823 15.1453 16.1739 14.862 16.1739C14.5787 16.1739 14.3453 16.0823 14.162 15.8989L11.362 13.0989C11.262 12.9989 11.187 12.8866 11.137 12.7619C11.087 12.6373 11.062 12.5079 11.062 12.3739V8.39893C11.062 8.11559 11.158 7.87826 11.35 7.68693C11.542 7.49559 11.7793 7.39959 12.062 7.39893C12.3447 7.39826 12.5823 7.49426 12.775 7.68693C12.9677 7.87959 13.0633 8.11693 13.062 8.39893V11.9989Z" fill="#EBEBEB"/>
</svg>
