<svg width="24" height="25" viewBox="0 0 24 25" fill="none" xmlns="http://www.w3.org/2000/svg">
<path d="M21.8718 1.57715H2.12989C1.45369 1.57715 0.905518 2.12532 0.905518 2.80152V22.5434C0.905518 23.2196 1.45369 23.7678 2.12989 23.7678H21.8718C22.548 23.7678 23.0961 23.2196 23.0961 22.5434V2.80152C23.0961 2.12532 22.548 1.57715 21.8718 1.57715Z" fill="#3D5A98"/>
<path d="M16.215 23.7664V15.1733H19.0987L19.53 11.8245H16.215V9.68704C16.215 8.71766 16.485 8.05579 17.8743 8.05579H19.6481V5.05579C18.7892 4.96644 17.926 4.92387 17.0625 4.92829C14.5087 4.92829 12.75 6.48454 12.75 9.35516V11.8245H9.86621V15.1733H12.75V23.7664H16.215Z" fill="#EBEBEB"/>
</svg>
