<svg width="24" height="25" viewBox="0 0 24 25" fill="none" xmlns="http://www.w3.org/2000/svg">
<path d="M2.04584 12.9369C2.11012 13.4043 2.2687 14.2016 2.32013 14.3473C2.35013 14.4245 2.37156 14.4073 2.47442 14.2016C2.84749 13.4557 3.48629 12.8512 4.24509 12.5297C4.5451 12.4012 5.07675 12.2554 5.41983 12.2083L5.61697 12.1783L5.63412 11.2738C5.64269 10.7721 5.64697 10.3605 5.64697 10.3564C5.64269 10.3478 4.84103 10.3307 3.85915 10.3136L2.07991 10.2878L2.04991 10.4121C1.98584 10.6817 1.98155 12.4952 2.04584 12.9369Z" fill="#A8CBC9"/>
<path d="M3.64044 9.39992C4.41639 9.39992 5.20519 9.41278 5.39826 9.42992C5.68112 9.45135 5.75398 9.44278 5.77113 9.39564C5.7797 9.36135 5.81827 9.12135 5.86113 8.86398C5.8997 8.60255 5.98113 8.18233 6.04113 7.92947C6.10113 7.67232 6.1397 7.45782 6.13542 7.45353C6.12685 7.44496 5.98113 7.39782 5.81827 7.3421C5.01233 7.08924 4.24496 6.53187 3.84616 5.9145L3.76902 5.79022L3.58044 6.08615C3.32758 6.47637 2.88593 7.35517 2.68879 7.85254C2.5345 8.2554 2.23856 9.22442 2.23856 9.34014C2.23856 9.39135 2.45714 9.39992 3.64044 9.39992Z" fill="#DCFDCF" fill-opacity="0.75"/>
<path d="M3.15645 16.4995C4.30118 18.6859 6.16186 20.4009 8.4254 21.3611C8.65683 21.4597 8.85419 21.5325 8.86276 21.524C8.87133 21.5154 8.77276 21.374 8.6399 21.2111C7.24231 19.4747 6.12757 16.5552 5.76757 13.6958L5.69042 13.0827L5.51899 13.1084C4.23711 13.3141 3.37974 14.0429 3.04095 15.2305C2.84787 15.9036 2.84787 15.9122 3.15645 16.4995Z" fill="#DCFDCF" fill-opacity="0.75"/>
<path d="M4.51535 5.28017C4.81964 5.81182 5.52701 6.33468 6.16152 6.50204C6.29867 6.53633 6.41867 6.56205 6.41867 6.55776C6.42295 6.55347 6.49153 6.37347 6.56867 6.16325C7.13889 4.62423 8.11627 3.00784 9.12814 1.93618C9.28243 1.77332 9.38958 1.64046 9.36386 1.64046C9.23957 1.64046 8.36056 1.99618 7.81198 2.2664C7.09175 2.62662 6.33295 3.1152 5.74987 3.604C5.30822 3.97707 4.38227 4.92016 4.38227 5.00159C4.38249 5.02709 4.44249 5.15138 4.51535 5.28017Z" fill="#DCFDCF" fill-opacity="0.75"/>
<path d="M6.55989 12.0838C6.57703 12.1138 6.76132 12.1652 6.96726 12.2038C8.0177 12.4009 9.20937 12.984 10.5898 13.9745C11.5115 14.6388 12.6219 15.5478 14.4183 17.1168C16.6604 19.0803 17.6937 19.8049 18.3797 19.8991C18.5082 19.9163 18.654 19.9677 18.697 20.0063C18.7785 20.0834 18.7913 20.0749 19.0958 19.8263C20.4889 18.6901 21.582 17.2068 22.238 15.5778C22.5251 14.8618 22.7439 14.0688 22.6753 14.0045C22.4096 13.7516 20.3775 12.6969 19.4513 12.3369C16.5533 11.1964 12.7376 10.5833 7.44298 10.4033L6.58132 10.3733L6.5556 10.7721C6.51703 11.2991 6.51703 12.0236 6.55989 12.0838Z" fill="#DCFDCF" fill-opacity="0.75"/>
<path d="M6.6805 13.6443C7.1393 17.0311 8.58404 20.2506 10.2219 21.5154C10.3804 21.6397 10.479 21.7554 10.5133 21.8497C10.569 22.0211 10.5647 22.0168 11.2849 22.1154C12.0309 22.214 13.4456 22.1797 14.1958 22.0468C14.8989 21.9225 15.6963 21.6994 16.3008 21.4637C16.7853 21.2709 17.8013 20.7649 17.8013 20.7221C17.797 20.7049 17.6298 20.6192 17.4239 20.5249C16.6394 20.1647 15.7347 19.479 13.664 17.674C10.779 15.1619 9.42877 14.1588 8.09096 13.5372C7.43073 13.2243 6.60765 13.0012 6.61622 13.1341C6.6205 13.1684 6.64622 13.3955 6.6805 13.6443Z" fill="#DCFDCF" fill-opacity="0.75"/>
<path d="M6.83888 9.45987C6.93745 9.47273 7.37481 9.49416 7.81196 9.50702C9.85693 9.5713 12.2233 9.76845 14.0069 10.0258C17.3851 10.5103 20.0818 11.3891 22.4096 12.7567L22.8812 13.031L22.9198 12.9196C22.9412 12.8596 22.9584 12.2979 22.9627 11.672C22.9669 10.6601 22.9541 10.4758 22.8684 9.98702C22.5341 8.13921 21.8094 6.51875 20.6863 5.12115C20.3305 4.6795 20.2405 4.62379 19.6403 4.4695C18.5727 4.19521 17.3682 4.29378 15.8718 4.77829C15.143 5.01422 14.5899 5.2328 13.2138 5.82017C10.2686 7.08062 9.01241 7.46205 7.54625 7.54369L7.04031 7.56941L6.99745 7.7237C6.94602 7.89513 6.71888 9.03558 6.68459 9.27987L6.65887 9.43844L6.83888 9.45987Z" fill="#DCFDCF" fill-opacity="0.75"/>
<path d="M7.74783 6.60052C8.92257 6.52337 10.1399 6.13315 12.9139 4.95413C15.6577 3.78368 16.7551 3.46225 18.1957 3.41082C18.5902 3.39796 18.9031 3.36796 18.8902 3.34653C18.8388 3.26082 17.6812 2.53202 17.2481 2.30894C16.3179 1.83301 15.2717 1.48586 14.1958 1.29728C13.5527 1.18585 12.1594 1.13442 11.5506 1.203L11.1518 1.25014L10.6759 1.67036C9.53994 2.67345 8.46806 4.08819 7.82498 5.43864C7.63212 5.84601 7.34047 6.54909 7.34047 6.60909C7.34047 6.61745 7.52497 6.61316 7.74783 6.60052Z" fill="#DCFDCF" fill-opacity="0.75"/>
</svg>
