<svg width="25" height="25" viewBox="0 0 25 25" fill="none" xmlns="http://www.w3.org/2000/svg">
<g clip-path="url(#clip0_4061_1812)">
<path d="M19.2417 0.672119H6.4917C3.3851 0.672119 0.866699 3.19052 0.866699 6.29712V19.0471C0.866699 22.1537 3.3851 24.6721 6.4917 24.6721H19.2417C22.3483 24.6721 24.8667 22.1537 24.8667 19.0471V6.29712C24.8667 3.19052 22.3483 0.672119 19.2417 0.672119Z" fill="url(#paint0_radial_4061_1812)"/>
<path d="M19.2417 0.672119H6.4917C3.3851 0.672119 0.866699 3.19052 0.866699 6.29712V19.0471C0.866699 22.1537 3.3851 24.6721 6.4917 24.6721H19.2417C22.3483 24.6721 24.8667 22.1537 24.8667 19.0471V6.29712C24.8667 3.19052 22.3483 0.672119 19.2417 0.672119Z" fill="url(#paint1_radial_4061_1812)"/>
<path d="M12.8675 3.29712C10.3215 3.29712 10.0019 3.30828 9.00195 3.35374C8.00389 3.39949 7.32261 3.55746 6.72654 3.78931C6.10986 4.02874 5.58682 4.34909 5.06576 4.87034C4.54423 5.39149 4.22389 5.91453 3.9837 6.53093C3.7512 7.12718 3.59304 7.80874 3.54814 8.80634C3.50342 9.80637 3.4917 10.1261 3.4917 12.6722C3.4917 15.2184 3.50295 15.5369 3.54832 16.5369C3.59426 17.5349 3.75223 18.2162 3.98389 18.8123C4.22351 19.429 4.54386 19.952 5.06511 20.4731C5.58607 20.9946 6.10911 21.3157 6.72532 21.5551C7.32186 21.787 8.00323 21.9449 9.00111 21.9907C10.0011 22.0361 10.3204 22.0473 12.8664 22.0473C15.4128 22.0473 15.7313 22.0361 16.7313 21.9907C17.7293 21.9449 18.4114 21.787 19.0079 21.5551C19.6243 21.3157 20.1466 20.9946 20.6674 20.4731C21.189 19.952 21.5092 19.429 21.7495 18.8126C21.9799 18.2162 22.1382 17.5347 22.1851 16.5371C22.23 15.5371 22.2417 15.2184 22.2417 12.6722C22.2417 10.1261 22.23 9.80656 22.1851 8.80653C22.1382 7.80846 21.9799 7.12728 21.7495 6.53121C21.5092 5.91453 21.189 5.39149 20.6674 4.87034C20.146 4.3489 19.6245 4.02856 19.0073 3.7894C18.4097 3.55746 17.728 3.3994 16.7299 3.35374C15.7299 3.30828 15.4115 3.29712 12.8646 3.29712H12.8675ZM12.0265 4.98659C12.2762 4.98621 12.5547 4.98659 12.8675 4.98659C15.3708 4.98659 15.6674 4.99559 16.6559 5.04049C17.5699 5.08231 18.0661 5.23503 18.3965 5.36337C18.8341 5.53324 19.146 5.7364 19.4739 6.06462C19.802 6.39274 20.0051 6.70521 20.1754 7.14274C20.3038 7.47274 20.4567 7.96887 20.4983 8.88293C20.5432 9.87124 20.553 10.1681 20.553 12.6701C20.553 15.1721 20.5432 15.469 20.4983 16.4572C20.4565 17.3712 20.3038 17.8674 20.1754 18.1975C20.0056 18.635 19.802 18.9465 19.4739 19.2745C19.1458 19.6026 18.8343 19.8057 18.3965 19.9756C18.0664 20.1045 17.5699 20.2569 16.6559 20.2987C15.6676 20.3436 15.3708 20.3533 12.8675 20.3533C10.3642 20.3533 10.0675 20.3436 9.07929 20.2987C8.16523 20.2565 7.66911 20.1038 7.33836 19.9754C6.90092 19.8055 6.58836 19.6024 6.26023 19.2743C5.93211 18.9462 5.72904 18.6344 5.5587 18.1967C5.43036 17.8666 5.27745 17.3705 5.23582 16.4564C5.19092 15.4681 5.18192 15.1713 5.18192 12.6677C5.18192 10.1641 5.19092 9.8689 5.23582 8.88059C5.27764 7.96653 5.43036 7.4704 5.5587 7.13993C5.72867 6.7024 5.93211 6.38993 6.26032 6.06181C6.58854 5.73368 6.90092 5.53053 7.33845 5.36028C7.66892 5.23137 8.16523 5.07903 9.07929 5.03703C9.94414 4.99793 10.2793 4.98621 12.0265 4.98424V4.98659ZM17.8719 6.54321C17.2508 6.54321 16.7469 7.04665 16.7469 7.66784C16.7469 8.28893 17.2508 8.79284 17.8719 8.79284C18.493 8.79284 18.9969 8.28893 18.9969 7.66784C18.9969 7.04674 18.493 6.54284 17.8719 6.54284V6.54321ZM12.8675 7.85768C10.2088 7.85768 8.05311 10.0134 8.05311 12.6722C8.05311 15.3311 10.2088 17.4857 12.8675 17.4857C15.5264 17.4857 17.6813 15.3311 17.6813 12.6722C17.6813 10.0135 15.5262 7.85768 12.8674 7.85768H12.8675ZM12.8675 9.54715C14.5934 9.54715 15.9926 10.9462 15.9926 12.6722C15.9926 14.3981 14.5934 15.7973 12.8675 15.7973C11.1417 15.7973 9.74257 14.3981 9.74257 12.6722C9.74257 10.9462 11.1416 9.54715 12.8675 9.54715Z" fill="#EBEBEB"/>
</g>
<defs>
<radialGradient id="paint0_radial_4061_1812" cx="0" cy="0" r="1" gradientUnits="userSpaceOnUse" gradientTransform="translate(7.2417 26.5206) rotate(-90) scale(23.7858 22.1227)">
<stop stop-color="#FFDD55"/>
<stop offset="0.1" stop-color="#FFDD55"/>
<stop offset="0.5" stop-color="#FF543E"/>
<stop offset="1" stop-color="#C837AB"/>
</radialGradient>
<radialGradient id="paint1_radial_4061_1812" cx="0" cy="0" r="1" gradientUnits="userSpaceOnUse" gradientTransform="translate(-3.15339 2.40096) rotate(78.681) scale(10.6324 43.827)">
<stop stop-color="#3771C8"/>
<stop offset="0.128" stop-color="#3771C8"/>
<stop offset="1" stop-color="#6600FF" stop-opacity="0"/>
</radialGradient>
<clipPath id="clip0_4061_1812">
<rect width="24" height="24" fill="white" transform="translate(0.866699 0.672119)"/>
</clipPath>
</defs>
</svg>
