<svg width="24" height="25" viewBox="0 0 24 25" fill="none" xmlns="http://www.w3.org/2000/svg">
<path d="M20.2638 8.06586C20.1793 7.86233 20.0175 7.70059 19.814 7.61607C19.7139 7.57339 19.6064 7.55075 19.4975 7.54944H15.3329C15.1119 7.54944 14.9001 7.63719 14.7439 7.7934C14.5877 7.9496 14.4999 8.16146 14.4999 8.38237C14.4999 8.60328 14.5877 8.81514 14.7439 8.97134C14.9001 9.12755 15.1119 9.2153 15.3329 9.2153H17.4901L12.8341 13.8714L10.0937 11.1227C10.0163 11.0446 9.92416 10.9827 9.82266 10.9404C9.72116 10.8981 9.61229 10.8763 9.50234 10.8763C9.39238 10.8763 9.28351 10.8981 9.18201 10.9404C9.08051 10.9827 8.98839 11.0446 8.91096 11.1227L3.91337 16.1203C3.8353 16.1977 3.77334 16.2899 3.73105 16.3914C3.68876 16.4929 3.66699 16.6017 3.66699 16.7117C3.66699 16.8216 3.68876 16.9305 3.73105 17.032C3.77334 17.1335 3.8353 17.2256 3.91337 17.3031C3.9908 17.3811 4.08293 17.4431 4.18443 17.4854C4.28593 17.5277 4.3948 17.5494 4.50475 17.5494C4.61471 17.5494 4.72358 17.5277 4.82508 17.4854C4.92658 17.4431 5.0187 17.3811 5.09613 17.3031L9.50234 12.8885L12.2427 15.6372C12.3201 15.7153 12.4122 15.7772 12.5137 15.8195C12.6152 15.8618 12.7241 15.8836 12.8341 15.8836C12.944 15.8836 13.0529 15.8618 13.1544 15.8195C13.2559 15.7772 13.348 15.7153 13.4254 15.6372L18.6646 10.3897V12.547C18.6646 12.7679 18.7523 12.9798 18.9085 13.136C19.0647 13.2922 19.2766 13.38 19.4975 13.38C19.7184 13.38 19.9303 13.2922 20.0865 13.136C20.2427 12.9798 20.3304 12.7679 20.3304 12.547V8.38237C20.3291 8.27352 20.3065 8.16599 20.2638 8.06586Z" fill="#EBEBEB"/>
</svg>
