<svg width="24" height="25" viewBox="0 0 24 25" fill="none" xmlns="http://www.w3.org/2000/svg">
<path d="M20.7574 3.41539C18.1341 0.79203 13.4345 1.16745 10.3165 4.28545C6.49671 8.10494 7.78542 13.7794 4.33129 17.2335C3.58436 17.9805 3.76827 17.7959 3.73829 17.8259C3.73727 17.8279 2.04144 19.5207 2.03984 19.5223C1.32005 20.2421 1.32005 21.4125 2.03984 22.1323C2.75962 22.852 3.92996 22.852 4.64978 22.1323C6.98881 19.7932 6.13573 20.6495 6.34881 20.4365C6.34987 20.4345 6.93964 19.8451 6.9412 19.8435C9.36378 17.4209 12.6358 17.4574 16.313 16.0611C17.4874 15.6151 18.6132 15.1304 19.8873 13.8562C23.0017 10.7417 23.3821 6.04005 20.7574 3.41539ZM19.8873 4.28545C20.1866 4.58482 20.432 4.92029 20.6342 5.27876L19.0172 6.89572L17.2771 5.15555L18.894 3.5386C19.2525 3.74072 19.5879 3.98608 19.8873 4.28545ZM12.0567 10.3759L13.7968 8.63576L15.5369 10.3759L13.7968 12.1161L12.0567 10.3759ZM12.9267 12.9861L11.3116 14.6012C10.9497 14.3976 10.6129 14.1526 10.3166 13.8562C10.0202 13.5598 9.77517 13.223 9.57148 12.8611L11.1866 11.246L12.9267 12.9861ZM14.6669 7.76574L16.407 6.02558L18.1472 7.76574L16.407 9.50587L14.6669 7.76574ZM17.6423 3.05022L16.407 4.28541L15.1292 3.00761C15.9919 2.84121 16.8481 2.85766 17.6423 3.05022ZM13.7939 3.41251L15.5369 5.15547L13.7968 6.89564L11.6396 4.73842C12.3081 4.16236 13.04 3.72058 13.7939 3.41251ZM10.778 5.61698L12.9267 7.7657L11.1866 9.50583L9.44638 7.7657C9.76073 6.9958 10.2133 6.27224 10.778 5.61698ZM9.04521 9.10457L10.3165 10.3759L9.08262 11.6098C8.89292 10.8295 8.87738 9.97865 9.04521 9.10457ZM9.67615 16.7634C9.03824 16.7172 8.48896 16.4861 8.08881 16.086C7.68866 15.6858 7.45758 15.1365 7.4114 14.4986C7.67078 13.723 7.28199 15.052 8.0482 12.3574C8.10965 12.544 8.1553 12.7376 8.23327 12.9164C8.24717 12.9648 8.26879 13.0087 8.29483 13.0531C8.58223 13.6696 8.9592 14.239 9.44642 14.7263C9.93353 15.2133 10.5028 15.5902 11.119 15.8774C11.1637 15.9037 11.2081 15.9257 11.2568 15.9397C11.4369 16.0182 11.6317 16.0643 11.8198 16.1259C9.12257 16.8928 10.451 16.5042 9.67615 16.7634ZM12.5631 15.0899L13.7969 13.8561L15.068 15.1274C14.1939 15.2951 13.3433 15.2795 12.5631 15.0899ZM16.407 14.7263L14.6669 12.9861L16.407 11.246L18.5557 13.3947C17.9005 13.9594 17.177 14.412 16.407 14.7263ZM19.4343 12.5331L17.2772 10.3759L19.0173 8.63576L20.7603 10.3788C20.4521 11.1328 20.0104 11.8646 19.4343 12.5331ZM19.8873 7.7657L21.1226 6.53052C21.3151 7.32458 21.3315 8.18082 21.1651 9.0435L19.8873 7.7657Z" fill="#A8CBC9"/>
</svg>
