<svg width="35" height="25" viewBox="0 0 35 25" fill="none" xmlns="http://www.w3.org/2000/svg">
<g clip-path="url(#clip0_4061_1817)">
<path d="M34.2462 4.41545C34.0504 3.69193 33.6685 3.03231 33.1385 2.50229C32.6085 1.97227 31.9489 1.59033 31.2254 1.39452C28.5766 0.672119 17.9161 0.672119 17.9161 0.672119C17.9161 0.672119 7.25499 0.693986 4.60619 1.41639C3.88266 1.61221 3.22305 1.99417 2.69305 2.52421C2.16305 3.05426 1.78115 3.7139 1.58539 4.43745C0.784192 9.14385 0.473391 16.3153 1.60739 20.8335C1.80317 21.557 2.18508 22.2166 2.71508 22.7466C3.24508 23.2766 3.90467 23.6586 4.62819 23.8544C7.27699 24.5768 17.9378 24.5768 17.9378 24.5768C17.9378 24.5768 28.5985 24.5768 31.2471 23.8544C31.9707 23.6586 32.6303 23.2767 33.1603 22.7466C33.6903 22.2166 34.0723 21.557 34.2681 20.8335C35.1131 16.1204 35.3735 8.95332 34.2462 4.41545Z" fill="#FF0000"/>
<path d="M14.5227 17.7468L23.3664 12.6244L14.5227 7.50195V17.7468Z" fill="#EBEBEB"/>
</g>
<defs>
<clipPath id="clip0_4061_1817">
<rect width="34.1333" height="24" fill="white" transform="translate(0.866699 0.672119)"/>
</clipPath>
</defs>
</svg>
